<svg width="51" height="51" viewBox="0 0 51 51" fill="none" xmlns="http://www.w3.org/2000/svg">
<g clip-path="url(#clip0_1395_13199)">
<path d="M25.5773 47.9817C13.1772 47.9817 3.08781 37.8928 3.08781 25.4923C3.08781 16.4683 8.52417 8.3771 16.6278 4.85686L14.7296 7.94639C14.4511 8.47083 14.6278 9.12114 15.1335 9.43268C15.6392 9.74378 16.2998 9.60809 16.6421 9.12293L20.2021 3.32013C20.3927 3.01082 20.4221 2.62876 20.2811 2.29356C20.14 1.95881 19.8463 1.71243 19.492 1.63254L12.3774 0.0226077C11.7784 -0.0987954 11.1919 0.280589 11.0567 0.876446C10.9219 1.47275 11.287 2.06771 11.8802 2.21634L15.2969 2.99609C11.6387 4.67699 8.4416 7.21708 5.97694 10.3999C0.22636 17.8693 -0.780125 27.9574 3.38195 36.4154C7.54402 44.8735 16.1507 50.2313 25.5773 50.2321C26.1986 50.2321 26.7025 49.7282 26.7025 49.1069C26.7025 48.4856 26.1986 47.9817 25.5773 47.9817Z" fill="#B8BBBE"/>
<path d="M43.0711 8.00806C38.4417 3.35368 32.1426 0.743956 25.5779 0.76181C24.9566 0.76181 24.4531 1.26572 24.4531 1.88702C24.4531 2.50832 24.9566 3.01178 25.5779 3.01178C37.978 3.01178 48.0674 13.1012 48.0674 25.5017C48.0674 34.5244 42.6314 42.6155 34.5287 46.1358L36.4256 43.0476C36.7505 42.5178 36.5845 41.8251 36.0547 41.5001C35.5254 41.1752 34.8322 41.3412 34.5073 41.8706L30.9477 47.6738C30.7572 47.9831 30.7277 48.3652 30.8687 48.7C31.0093 49.0351 31.3035 49.2811 31.6579 49.3614L38.7782 50.978C39.3772 51.0994 39.9633 50.7201 40.0985 50.1242C40.2337 49.5279 39.8682 48.9329 39.2755 48.7843L35.861 47.9979C39.5178 46.3165 42.7145 43.7764 45.1782 40.5941C52.7637 30.7443 51.8621 16.7955 43.0711 8.00493V8.00806Z" fill="#B8BBBE"/>
<path d="M13.6762 27.4882C14.8112 26.762 15.5852 26.109 15.9985 25.5283C16.4118 24.9477 16.6184 24.2152 16.6184 23.3301C16.6184 22.2531 16.256 21.3734 15.5316 20.6905C14.8067 20.0081 13.8694 19.6671 12.7188 19.668C11.4865 19.668 10.5201 20.0384 9.8194 20.7793C9.1191 21.5207 8.78748 22.5227 8.82497 23.7859H11.0749C11.054 23.1106 11.1901 22.5749 11.4824 22.1782C11.7659 21.789 12.2251 21.5671 12.7063 21.5872C13.1504 21.568 13.5811 21.7399 13.89 22.0585C14.1899 22.3732 14.3399 22.7887 14.3399 23.3065C14.3412 23.7698 14.1957 24.2215 13.9239 24.5968C13.6516 24.9838 13.1825 25.4092 12.5162 25.8725C11.029 26.9164 10.0167 27.8198 9.47885 28.5817C8.94101 29.3436 8.67188 30.2582 8.67188 31.3245H16.6193V29.3106H11.5173L11.5253 29.295C11.9091 28.7562 12.6264 28.1541 13.6762 27.4882Z" fill="#252525"/>
<path d="M17.207 27.7672V28.7594H21.8199V31.3258H24.0699V28.7594H25.3817V26.9356H24.0757V19.668H21.5173L17.207 26.7759V27.7672ZM18.9924 26.7759L21.8208 22.0813V26.9356H18.896L18.9924 26.7759Z" fill="#252525"/>
<path d="M35.8853 31.3246H38.2424C38.4026 29.5357 38.8565 27.7852 39.5854 26.1436C40.2919 24.4894 41.2698 22.9648 42.479 21.6333V19.8984H34.2383V21.9136H40.0098C38.9034 23.1781 37.9933 24.601 37.3095 26.136C36.5512 27.7749 36.07 29.5281 35.8853 31.3246Z" fill="#252525"/>
<path d="M33.7445 13.0309C33.1509 12.8475 32.5206 13.18 32.3372 13.7736L25.3003 36.5581C25.1173 37.1513 25.4494 37.7806 26.0425 37.9641C26.1519 37.9984 26.2657 38.0159 26.38 38.015C26.8741 38.015 27.3101 37.6936 27.4556 37.2218L34.493 14.4373C34.5805 14.1517 34.551 13.8428 34.4104 13.579C34.2703 13.3152 34.0306 13.118 33.7445 13.0309Z" fill="#252525"/>
</g>
<defs>
<clipPath id="clip0_1395_13199">
<rect width="51" height="51" fill="white"/>
</clipPath>
</defs>
</svg>
