<svg width="27" height="14" viewBox="0 0 27 14" fill="none" xmlns="http://www.w3.org/2000/svg">
<path d="M9.85891 13.9991C11.3667 13.9991 12.589 12.7768 12.589 11.2691C12.589 9.76135 11.3667 8.53906 9.85891 8.53906C8.35118 8.53906 7.12891 9.76135 7.12891 11.2691C7.12891 12.7768 8.35118 13.9991 9.85891 13.9991Z" fill="#201D1D"/>
<path d="M16.9879 13.9991C18.4957 13.9991 19.7179 12.7768 19.7179 11.2691C19.7179 9.76135 18.4957 8.53906 16.9879 8.53906C15.4801 8.53906 14.2578 9.76135 14.2578 11.2691C14.2578 12.7768 15.4801 13.9991 16.9879 13.9991Z" fill="#201D1D"/>
<path d="M13.4205 0C6.00788 0 -0.00193986 6.12431 4.69706e-07 13.6767H3.42855C3.42855 8.01677 7.86672 3.4279 13.4205 3.4279C18.9745 3.4279 23.4126 8.01677 23.4126 13.6767H26.8411C26.8425 6.12431 20.8326 0 13.4205 0Z" fill="#201D1D"/>
</svg>
