<svg width="23" height="21" viewBox="0 0 23 21" fill="none" xmlns="http://www.w3.org/2000/svg">
<path d="M2.61719 14.0485V20.0668C2.61719 20.4373 2.93074 20.5911 3.02829 20.626C3.12582 20.668 3.45333 20.7588 3.74596 20.4862L8.29887 16.1109C8.68657 15.7383 9.06079 15.3467 9.34196 14.8885C9.47433 14.6731 9.52919 14.5517 9.52919 14.5517C9.80795 13.9855 9.80795 13.4403 9.5361 12.8951C9.13213 12.0843 8.10082 11.2594 6.54693 10.4766L3.89229 11.9584C3.10495 12.4058 2.61719 13.1957 2.61719 14.0485Z" fill="#004EC3"/>
<path d="M0 0.664052V6.976C0 7.76589 0.529556 8.46488 1.28208 8.68856C3.84619 9.42948 8.31251 11.0232 9.39254 13.3648C9.53178 13.6724 9.61543 13.973 9.64349 14.2875C10.3611 12.9804 10.6886 11.4775 10.5353 9.95372C10.3262 7.79382 9.18341 5.82963 7.39978 4.57842L1.0382 0.125821C0.926709 0.0419411 0.794323 0 0.661941 0C0.550445 0 0.452898 0.0209706 0.348388 0.0768908C0.139346 0.19572 0 0.412415 0 0.664052Z" fill="#2470FF"/>
<path d="M19.5516 14.0485V20.0668C19.5516 20.4373 19.2382 20.5911 19.1405 20.626C19.0431 20.668 18.7153 20.7588 18.4228 20.4862L13.7639 16.0091C13.4468 15.7043 13.144 15.382 12.9051 15.0126C12.7159 14.7202 12.6397 14.5517 12.6397 14.5517C12.3609 13.9855 12.3609 13.4403 12.6325 12.8951C13.0367 12.0843 14.068 11.2594 15.6216 10.4766L18.2765 11.9584C19.0709 12.4058 19.5516 13.1957 19.5516 14.0485Z" fill="#004EC3"/>
<path d="M22.1739 0.664051V6.97599C22.1739 7.76584 21.6442 8.46484 20.8916 8.68852C18.3276 9.42947 13.8614 11.0232 12.7814 13.3648C12.6418 13.6724 12.5582 13.973 12.5304 14.2875C11.8128 12.9804 11.4853 11.4776 11.6386 9.95371C11.8475 7.79381 12.9902 5.82965 14.7741 4.57844L21.1357 0.125819C21.2471 0.0419386 21.3795 0 21.5119 0C21.6233 0 21.721 0.0209705 21.8253 0.0768904C22.0344 0.19572 22.1739 0.412411 22.1739 0.664051Z" fill="#2470FF"/>
</svg>
