<svg width="60" height="32" viewBox="0 0 60 32" fill="none" xmlns="http://www.w3.org/2000/svg">
<rect x="0.5" y="0.5" width="59" height="31" rx="15.5" fill="url(#paint0_linear_1405_26270)"/>
<rect x="0.5" y="0.5" width="59" height="31" rx="15.5" stroke="#DBDBDB"/>
<ellipse cx="43.5" cy="16" rx="14.5" ry="14" fill="white"/>
<path d="M43.1729 15.6364C43.1729 16.5881 42.9925 17.3977 42.6317 18.0653C42.2738 18.733 41.7852 19.2429 41.1658 19.5952C40.5494 19.9446 39.8562 20.1193 39.0863 20.1193C38.3107 20.1193 37.6147 19.9432 36.9982 19.5909C36.3817 19.2386 35.8945 18.7287 35.5366 18.0611C35.1786 17.3935 34.9996 16.5852 34.9996 15.6364C34.9996 14.6847 35.1786 13.875 35.5366 13.2074C35.8945 12.5398 36.3817 12.0312 36.9982 11.6818C37.6147 11.3295 38.3107 11.1534 39.0863 11.1534C39.8562 11.1534 40.5494 11.3295 41.1658 11.6818C41.7852 12.0312 42.2738 12.5398 42.6317 13.2074C42.9925 13.875 43.1729 14.6847 43.1729 15.6364ZM41.3022 15.6364C41.3022 15.0199 41.2099 14.5 41.0252 14.0767C40.8434 13.6534 40.5863 13.3324 40.2539 13.1136C39.9215 12.8949 39.5323 12.7855 39.0863 12.7855C38.6403 12.7855 38.2511 12.8949 37.9187 13.1136C37.5863 13.3324 37.3278 13.6534 37.1431 14.0767C36.9613 14.5 36.8704 15.0199 36.8704 15.6364C36.8704 16.2528 36.9613 16.7727 37.1431 17.196C37.3278 17.6193 37.5863 17.9403 37.9187 18.1591C38.2511 18.3778 38.6403 18.4872 39.0863 18.4872C39.5323 18.4872 39.9215 18.3778 40.2539 18.1591C40.5863 17.9403 40.8434 17.6193 41.0252 17.196C41.2099 16.7727 41.3022 16.2528 41.3022 15.6364ZM51.8395 11.2727V20H50.2457L46.4489 14.5071H46.3849V20H44.5398V11.2727H46.1591L49.9261 16.7614H50.0028V11.2727H51.8395Z" fill="#3860E7"/>
<defs>
<linearGradient id="paint0_linear_1405_26270" x1="30" y1="0" x2="30" y2="32" gradientUnits="userSpaceOnUse">
<stop stop-color="#DDDDDD"/>
<stop offset="1" stop-color="#EEEEEE"/>
</linearGradient>
</defs>
</svg>
