<svg width="32" height="32" viewBox="0 0 32 32" fill="none" xmlns="http://www.w3.org/2000/svg">
<g clip-path="url(#clip0_1395_20439)">
<path d="M32 16.0004C32 24.8373 24.8365 32.0008 15.9996 32.0008C7.16346 32 0 24.8365 0 16.0004C0 7.16346 7.16346 0 16.0004 0C24.8373 0 32.0008 7.16346 32.0008 16.0004H32Z" fill="#010002"/>
<path d="M20.3394 7.60938H11.6571C9.41989 7.60938 7.60547 9.4238 7.60547 11.661V20.3433C7.60547 22.5806 9.41989 24.395 11.6571 24.395H20.3394C22.5767 24.395 24.3911 22.5806 24.3911 20.3433V11.661C24.3911 9.4238 22.5767 7.60938 20.3394 7.60938ZM22.9439 20.0542C22.9439 21.652 21.6473 22.9486 20.0495 22.9486H11.9462C10.3484 22.9486 9.05185 21.652 9.05185 20.0542V11.9509C9.05185 10.3532 10.3484 9.05656 11.9462 9.05656H20.0495C21.6473 9.05656 22.9439 10.3532 22.9439 11.9509V20.0542Z" fill="white"/>
<path d="M16.0087 11.6602C13.6129 11.6602 11.668 13.605 11.668 16.0009C11.668 18.3968 13.6129 20.3417 16.0087 20.3417C18.4046 20.3417 20.3495 18.3968 20.3495 16.0009C20.3495 13.605 18.4046 11.6602 16.0087 11.6602ZM16.0087 18.8953C14.4142 18.8953 13.1144 17.5955 13.1144 16.0009C13.1144 14.4063 14.4142 13.1065 16.0087 13.1065C17.6033 13.1065 18.9031 14.4063 18.9031 16.0009C18.9031 17.5955 17.6033 18.8953 16.0087 18.8953Z" fill="white"/>
<path d="M20.6377 12.2363C20.1593 12.2363 19.7695 11.8465 19.7695 11.3682C19.7695 10.8898 20.1593 10.5 20.6377 10.5C21.1161 10.5 21.5058 10.8898 21.5058 11.3682C21.5058 11.8465 21.1161 12.2363 20.6377 12.2363Z" fill="white"/>
</g>
<defs>
<clipPath id="clip0_1395_20439">
<rect width="32" height="32" fill="white"/>
</clipPath>
</defs>
</svg>
