<svg width="32" height="32" viewBox="0 0 32 32" fill="none" xmlns="http://www.w3.org/2000/svg">
<g clip-path="url(#clip0_1395_20426)">
<path d="M32 16.0004C32 24.8373 24.8365 32.0008 15.9996 32.0008C7.16346 32 0 24.8365 0 16.0004C0 7.16346 7.16346 0 16.0004 0C24.8373 0 32.0008 7.16346 32.0008 16.0004H32Z" fill="#010002"/>
<path d="M10.3343 11.7233C11.4725 11.7233 12.3951 10.8006 12.3951 9.66242C12.3951 8.52424 11.4725 7.60156 10.3343 7.60156C9.19611 7.60156 8.27344 8.52424 8.27344 9.66242C8.27344 10.8006 9.19611 11.7233 10.3343 11.7233Z" fill="white"/>
<path d="M11.8981 13.0977H8.77101C8.68605 13.0977 8.61719 13.1665 8.61719 13.2515V23.2473C8.61719 23.3322 8.68605 23.4011 8.77101 23.4011H11.8981C11.9831 23.4011 12.0519 23.3322 12.0519 23.2473V13.2515C12.0519 13.1665 11.9831 13.0977 11.8981 13.0977Z" fill="white"/>
<path d="M23.7292 16.8756V22.7143C23.7292 23.092 23.42 23.4012 23.0423 23.4012H20.9814C20.6037 23.4012 20.2945 23.092 20.2945 22.7143V17.9056C20.2945 16.9578 19.5254 16.1887 18.5775 16.1887C17.6296 16.1887 16.8605 16.9578 16.8605 17.9056V22.7143C16.8605 23.092 16.5513 23.4012 16.1736 23.4012H14.1127C13.735 23.4012 13.4258 23.092 13.4258 22.7143V13.7839C13.4258 13.4062 13.735 13.097 14.1127 13.097H16.1736C16.5513 13.097 16.8605 13.4062 16.8605 13.7839V14.2236C17.5475 13.3337 18.6846 12.7539 19.9514 12.7539C21.8472 12.7539 23.7292 14.1278 23.7292 16.8756Z" fill="white"/>
</g>
<defs>
<clipPath id="clip0_1395_20426">
<rect width="32" height="32" fill="white"/>
</clipPath>
</defs>
</svg>
