<svg width="32" height="32" viewBox="0 0 32 32" fill="none" xmlns="http://www.w3.org/2000/svg">
<g clip-path="url(#clip0_1395_20434)">
<path d="M15.9986 31.9972C24.8344 31.9972 31.9972 24.8344 31.9972 15.9986C31.9972 7.16281 24.8344 0 15.9986 0C7.16281 0 0 7.16281 0 15.9986C0 24.8344 7.16281 31.9972 15.9986 31.9972Z" fill="#010002"/>
<path d="M22.898 8.97549C22.8384 8.97549 22.7732 8.98683 22.7108 9.00951L6.60736 15.1277C6.15374 15.3006 6.16508 15.9471 6.62437 16.103L10.3582 17.3646L12.6093 21.8696C12.6093 21.8696 12.6093 21.8696 12.6093 21.8725L12.615 21.8838C12.6547 21.966 12.7397 22.0199 12.8304 22.0199C12.8843 22.0199 12.9382 22.0029 12.9864 21.9632L15.0957 20.1742L12.7397 18.3881L12.924 20.7356L11.2314 17.2314L20.2301 11.8276L12.7397 18.3909L18.5687 22.8165C18.7643 22.964 18.9883 23.032 19.2066 23.032C19.6688 23.032 20.1139 22.7287 20.2386 22.2268L23.3913 9.61906C23.4763 9.27885 23.2098 8.97266 22.8894 8.97266L22.898 8.97549Z" fill="white"/>
</g>
<defs>
<clipPath id="clip0_1395_20434">
<rect width="32" height="32" fill="white"/>
</clipPath>
</defs>
</svg>
