<svg width="53" height="53" viewBox="0 0 53 53" fill="none" xmlns="http://www.w3.org/2000/svg">
<path d="M53 26.5C53 41.1355 41.1355 53 26.5 53C11.8645 53 0 41.1355 0 26.5C0 11.8645 11.8645 0 26.5 0C41.1355 0 53 11.8645 53 26.5ZM13.25 26.5C13.25 33.8178 19.1822 39.75 26.5 39.75C33.8178 39.75 39.75 33.8178 39.75 26.5C39.75 19.1822 33.8178 13.25 26.5 13.25C19.1822 13.25 13.25 19.1822 13.25 26.5Z" fill="#C5D8F7"/>
<path d="M26.5 0C32.0963 6.67346e-08 37.5488 1.77166 42.0763 5.06105C46.6038 8.35044 49.9737 12.9887 51.703 18.3111L39.1015 22.4055C38.2368 19.7444 36.5519 17.4252 34.2882 15.7805C32.0244 14.1358 29.2981 13.25 26.5 13.25L26.5 0Z" fill="black" fill-opacity="0.2"/>
<path d="M26.5 0C32.0963 6.67346e-08 37.5488 1.77166 42.0763 5.06105C46.6038 8.35044 49.9737 12.9887 51.703 18.3111L39.1015 22.4055C38.2368 19.7444 36.5519 17.4252 34.2882 15.7805C32.0244 14.1358 29.2981 13.25 26.5 13.25L26.5 0Z" fill="#043CAE"/>
<path d="M51.703 18.3111C53.2132 22.959 53.4087 27.9341 52.2678 32.6863C51.1269 37.4385 48.6941 41.7826 45.2383 45.2383C41.7826 48.6941 37.4385 51.1269 32.6863 52.2678C27.9342 53.4087 22.9591 53.2132 18.3111 51.703L22.4055 39.1015C24.7295 39.8566 27.2171 39.9543 29.5932 39.3839C31.9692 38.8135 34.1413 37.597 35.8692 35.8692C37.597 34.1413 38.8135 31.9692 39.3839 29.5931C39.9543 27.2171 39.8566 24.7295 39.1015 22.4055L51.703 18.3111Z" fill="#C5D8F7"/>
</svg>
