<svg width="119" height="29" viewBox="0 0 119 29" fill="none" xmlns="http://www.w3.org/2000/svg">
<path d="M36.0333 20.9703C35.9588 21.3672 36.2566 21.7145 36.6535 21.7145H52.7796C53.3503 21.7145 53.5984 22.0123 53.5239 22.5581L52.7052 27.0734C52.6308 27.6192 52.2835 27.9169 51.688 27.9169H27.871C27.3003 27.9169 27.0274 27.6192 27.1019 27.0734L31.5924 1.71827C31.7164 1.17247 32.0638 0.874756 32.6344 0.874756H38.6135C39.1841 0.874756 39.5066 1.17247 39.3825 1.71827L36.0085 20.9455L36.0333 20.9703Z" fill="black"/>
<path d="M72.5827 21.7145C75.1381 21.7145 75.6343 21.3176 75.9816 19.2336L79.0828 1.71827C79.2068 1.17247 79.5542 0.874756 80.1248 0.874756H86.1535C86.6993 0.874756 86.997 1.17247 86.8978 1.71827L83.3748 21.7394C82.6058 26.0562 81.5141 27.9169 75.8328 27.9169H60.3765C56.5558 27.9169 54.7695 26.602 54.7695 23.6001C54.7695 20.5981 54.844 22.434 54.968 21.7394L58.4909 1.71827C58.615 1.17247 58.9623 0.874756 59.5329 0.874756H65.5616C66.1323 0.874756 66.4052 1.17247 66.3059 1.71827L63.2047 19.2336C63.1303 19.6554 63.0807 20.0027 63.0807 20.2756C63.0807 21.4665 63.7257 21.7145 65.7353 21.7145H72.5827Z" fill="black"/>
<path d="M113.915 27.2234C114.188 27.6204 113.865 28.0669 113.444 28.0669H106.224C105.653 28.0669 105.306 27.9429 105.033 27.4219L101.337 21.4677C100.964 20.7482 99.9721 20.649 99.4511 21.2692L93.348 27.4219C92.8766 27.9677 92.5789 28.0669 91.9586 28.0669H84.4166C83.9948 28.0669 83.8459 27.5956 84.1933 27.2234L96.3003 15.0172C96.6476 14.6451 96.6972 14.0993 96.4491 13.6527L88.9071 1.84351C88.7086 1.44657 88.9815 1 89.4033 1H96.6228C97.243 1 97.5159 1.12405 97.7889 1.64504L113.94 27.1986L113.915 27.2234Z" fill="black"/>
<path d="M103.798 8.51779C103.55 8.17046 103.599 7.69909 103.872 7.37657L109.578 1.67043C110 1.12463 110.397 1.02539 111.017 1.02539H118.559C118.981 1.02539 119.105 1.49677 118.758 1.8689L107.842 12.8098C107.494 13.1819 106.924 13.1323 106.626 12.7106L103.822 8.49299L103.798 8.51779Z" fill="black"/>
<path d="M29.2623 0.874756H4.57687C4.00625 0.874756 3.65893 1.17247 3.53488 1.71827L2.59212 6.97784C2.51769 7.42441 2.86503 7.84617 3.3116 7.84617H10.4567H28.0466C28.6172 7.84617 28.9646 7.54845 29.0638 7.00265L30.0314 1.74308C30.1554 1.19728 29.8577 0.874756 29.2623 0.874756Z" fill="black"/>
<path d="M19.9344 9.48315C20.505 9.48315 20.8027 9.83049 20.7283 10.3763L19.6863 16.0328C19.6119 16.5786 19.2149 16.8763 18.6443 16.8763H9.09266C8.81976 16.8763 8.57167 17.0748 8.49724 17.3477L6.33881 27.7676C6.28919 28.0405 5.91706 28.1149 5.7682 27.8668L0.33493 21.4164C0.0372167 20.9202 -0.0620241 20.3496 0.0372137 19.8038L1.8235 10.3515C1.92274 9.85529 2.34449 9.48315 2.86549 9.48315H19.9344Z" fill="black"/>
</svg>
