<svg width="125" height="26" viewBox="0 0 125 26" fill="none" xmlns="http://www.w3.org/2000/svg">
<g clip-path="url(#clip0_1395_13260)">
<path d="M7.55062 11.0124L12.4108 6.15242L17.2735 11.0149L20.1015 8.18697L12.4108 0.496094L4.72266 8.1844L7.55062 11.0124Z" fill="#F3BA2F"/>
<path d="M5.55448 13.0076L2.72656 10.1797L-0.101496 13.0077L2.72642 15.8357L5.55448 13.0076Z" fill="#F3BA2F"/>
<path d="M7.55087 15.0063L12.411 19.8662L17.2735 15.0039L20.1031 17.8303L20.1017 17.8319L12.411 25.5226L4.7227 17.8344L4.71875 17.8305L7.55087 15.0063Z" fill="#F3BA2F"/>
<path d="M22.0938 15.8398L24.9219 13.0117L22.094 10.1838L19.2659 13.0119L22.0938 15.8398Z" fill="#F3BA2F"/>
<path d="M15.2786 13.0064H15.2798L12.4101 10.1367L10.2894 12.2574H10.2892L10.0457 12.5012L9.54302 13.0038L9.53906 13.0078L9.54302 13.0119L12.4101 15.879L15.2798 13.0094L15.2812 13.0078L15.2786 13.0064Z" fill="#F3BA2F"/>
<path d="M29.332 6.55859H35.4827C37.0093 6.55859 38.1636 6.95036 38.946 7.7339C39.5514 8.34073 39.854 9.09283 39.854 9.99003V10.028C39.854 10.4071 39.8072 10.7421 39.7129 11.0327C39.6188 11.3237 39.4931 11.5856 39.336 11.8194C39.1792 12.0534 38.997 12.2588 38.7898 12.4355C38.5825 12.6126 38.3597 12.7644 38.1211 12.8905C38.8885 13.1815 39.4925 13.5762 39.9329 14.0755C40.3731 14.575 40.5935 15.267 40.5935 16.1516V16.1893C40.5935 16.7962 40.4769 17.3269 40.2434 17.7821C40.01 18.2369 39.6756 18.6162 39.2401 18.9197C38.8046 19.2231 38.281 19.4504 37.6691 19.6022C37.0571 19.7538 36.3789 19.8295 35.6347 19.8295H29.332V6.55859ZM34.8678 11.9238C35.5126 11.9238 36.0245 11.8135 36.4034 11.5921C36.7826 11.3709 36.9721 11.0137 36.9721 10.521V10.483C36.9721 10.0408 36.8077 9.70282 36.4791 9.46879C36.1504 9.23495 35.6764 9.11794 35.0573 9.11794H32.1756V11.9238H34.8678ZM35.6452 17.2704C36.2898 17.2704 36.795 17.1537 37.1619 16.9197C37.5283 16.6859 37.7118 16.3224 37.7118 15.8294V15.7916C37.7118 15.3493 37.541 14.9986 37.1998 14.7393C36.8585 14.4805 36.3088 14.3509 35.5503 14.3509H32.1756V17.2706L35.6452 17.2704Z" fill="#F3BA2F"/>
<path d="M44.2539 6.55859H47.1738V19.8299H44.2539V6.55859Z" fill="#F3BA2F"/>
<path d="M51.5938 6.55859H54.2855L60.5042 14.73V6.55859H63.3859V19.8299H60.9025L54.4753 11.3932V19.8299H51.5938V6.55859Z" fill="#F3BA2F"/>
<path d="M72.2311 6.46484H74.9231L80.6111 19.8308H77.5585L76.3451 16.8544H70.7332L69.52 19.8308H66.543L72.2311 6.46484ZM75.3024 14.2757L73.5391 9.97218L71.7763 14.2757H75.3024Z" fill="#F3BA2F"/>
<path d="M83.7578 6.55859H86.4502L92.6685 14.73V6.55859H95.5502V19.8299H93.0668L86.6395 11.3932V19.8299H83.7578V6.55859Z" fill="#F3BA2F"/>
<path d="M106.056 20.0582C105.083 20.0582 104.179 19.8811 103.345 19.5274C102.511 19.1738 101.79 18.6901 101.184 18.077C100.577 17.464 100.103 16.7404 99.762 15.9062C99.4206 15.0719 99.25 14.1808 99.25 13.2329V13.1951C99.25 12.2471 99.4206 11.3594 99.762 10.5314C100.103 9.70357 100.577 8.97677 101.184 8.35116C101.79 7.72556 102.517 7.23239 103.364 6.87225C104.21 6.5121 105.146 6.33203 106.17 6.33203C106.789 6.33203 107.354 6.38283 107.866 6.48364C108.378 6.58504 108.843 6.7238 109.26 6.90071C109.677 7.07781 110.062 7.29267 110.417 7.54529C110.77 7.7983 111.099 8.07621 111.402 8.37962L109.545 10.5219C109.026 10.0544 108.498 9.68756 107.961 9.4223C107.424 9.15703 106.821 9.0242 106.151 9.0242C105.595 9.0242 105.079 9.13173 104.606 9.34659C104.132 9.56145 103.724 9.85834 103.383 10.2375C103.042 10.6166 102.776 11.056 102.586 11.5551C102.397 12.0546 102.303 12.5885 102.303 13.1571V13.1949C102.303 13.7636 102.397 14.301 102.586 14.8062C102.776 15.3121 103.038 15.7542 103.373 16.1334C103.708 16.5125 104.113 16.8129 104.587 17.0341C105.061 17.2555 105.582 17.3658 106.151 17.3658C106.909 17.3658 107.55 17.2268 108.075 16.9487C108.599 16.671 109.121 16.2917 109.639 15.8112L111.497 17.6882C111.156 18.0548 110.801 18.3836 110.436 18.6739C110.069 18.9649 109.668 19.2143 109.231 19.4231C108.796 19.6314 108.318 19.7897 107.8 19.8969C107.282 20.0042 106.701 20.0582 106.056 20.0582Z" fill="#F3BA2F"/>
<path d="M114.941 6.55859H124.933V9.15609H117.823V11.8483H124.08V14.4456H117.823V17.2326H125.028V19.8299H114.941V6.55859Z" fill="#F3BA2F"/>
</g>
<defs>
<clipPath id="clip0_1395_13260">
<rect width="124.926" height="25.0263" fill="white" transform="translate(0.00390625 0.496094)"/>
</clipPath>
</defs>
</svg>
