<svg width="110" height="28" viewBox="0 0 110 28" fill="none" xmlns="http://www.w3.org/2000/svg">
<path d="M31.1895 15.8636C31.1895 16.0572 31.0265 16.2202 30.8228 16.2202H24.07C24.2431 17.8913 25.4959 19.4197 27.2682 19.4197C28.4802 19.4197 29.3765 18.9612 30.0487 17.9932C30.12 17.8913 30.2219 17.82 30.3441 17.82C30.5376 17.82 30.6802 17.9626 30.6802 18.1562C30.6802 18.2275 30.6599 18.2785 30.6293 18.3294C29.9469 19.5114 28.5922 20.0922 27.2682 20.0922C24.9968 20.0922 23.3672 18.0543 23.3672 15.884C23.3672 13.7035 24.9866 11.6758 27.2682 11.6758C29.5395 11.6758 31.1793 13.6933 31.1895 15.8636ZM30.4663 15.5477C30.3237 13.8767 29.0404 12.3483 27.2682 12.3483C25.4959 12.3483 24.2431 13.8767 24.07 15.5477H30.4663Z" fill="#3B3B3B"/>
<path d="M39.3833 11.8396C39.5768 11.8396 39.7194 12.0128 39.7194 12.1758C39.7194 12.3694 39.5768 12.512 39.3833 12.512H37.5703V19.6344C37.5703 19.8076 37.4277 19.9707 37.2342 19.9707C37.0407 19.9707 36.8981 19.7974 36.8981 19.6344V12.512H35.1564C34.9629 12.512 34.8203 12.3694 34.8203 12.1758C34.8203 12.0026 34.9629 11.8396 35.1564 11.8396H36.8981V9.24126C36.8981 9.06804 37.0305 8.90502 37.2037 8.88464C37.4176 8.86426 37.5805 9.0171 37.5805 9.22089V11.8396H39.3833Z" fill="#3B3B3B"/>
<path d="M50.447 15.2831V19.5932C50.447 19.7868 50.2739 19.9294 50.1109 19.9294C49.9174 19.9294 49.7748 19.7868 49.7748 19.5932V15.2831C49.7748 13.826 48.9498 12.3791 47.3303 12.3791C45.2525 12.3791 44.3562 14.1928 44.4785 16.0575C44.4785 16.1084 44.4988 16.3224 44.4988 16.353V19.583C44.4988 19.7562 44.3664 19.9193 44.1933 19.9396C43.9794 19.96 43.8164 19.8072 43.8164 19.6034V5.43C43.8164 5.25678 43.959 5.09375 44.1525 5.09375C44.346 5.09375 44.4886 5.26697 44.4886 5.43V13.4388C45.0692 12.3995 46.1081 11.6964 47.3201 11.6964C49.3165 11.6964 50.447 13.4388 50.447 15.2831Z" fill="#3B3B3B"/>
<path d="M62.5762 15.8636C62.5762 16.0572 62.4133 16.2202 62.2096 16.2202H55.4567C55.6298 17.8913 56.8826 19.4197 58.6549 19.4197C59.8669 19.4197 60.7632 18.9612 61.4355 17.9932C61.5068 17.8913 61.6086 17.82 61.7308 17.82C61.9244 17.82 62.067 17.9626 62.067 18.1562C62.067 18.2275 62.0466 18.2785 62.016 18.3294C61.3336 19.5114 59.979 20.0922 58.6549 20.0922C56.3836 20.0922 54.7539 18.0543 54.7539 15.884C54.7539 13.7035 56.3734 11.6758 58.6549 11.6758C60.916 11.6758 62.5558 13.6933 62.5762 15.8636ZM61.8429 15.5477C61.7003 13.8767 60.4169 12.3483 58.6447 12.3483C56.8826 12.3483 55.6197 13.8767 55.4465 15.5477H61.8429Z" fill="#3B3B3B"/>
<path d="M70.8689 12.1557C70.8689 12.3697 70.7467 12.492 70.5531 12.5225C68.567 12.818 67.6707 14.4381 67.6707 16.3232V19.5532C67.6707 19.7264 67.5383 19.8894 67.3651 19.9098C67.1513 19.9302 66.9883 19.7773 66.9883 19.5736V12.2067C66.9883 12.0334 67.1207 11.8704 67.2938 11.85C67.5077 11.8297 67.6707 11.9825 67.6707 12.1863V13.6841C68.2309 12.7365 69.3411 11.8398 70.5022 11.8398C70.6754 11.8398 70.8689 11.9621 70.8689 12.1557Z" fill="#3B3B3B"/>
<path d="M81.9825 15.8636C81.9825 16.0572 81.8195 16.2202 81.6158 16.2202H74.8629C75.0361 17.8913 76.2889 19.4197 78.0611 19.4197C79.2732 19.4197 80.1695 18.9612 80.8417 17.9932C80.913 17.8913 81.0149 17.82 81.1371 17.82C81.3306 17.82 81.4732 17.9626 81.4732 18.1562C81.4732 18.2275 81.4528 18.2785 81.4223 18.3294C80.7399 19.5114 79.3852 20.0922 78.0611 20.0922C75.7898 20.0922 74.1602 18.0543 74.1602 15.884C74.1602 13.7035 75.7796 11.6758 78.0611 11.6758C80.3325 11.6758 81.9723 13.6933 81.9825 15.8636ZM81.2593 15.5477C81.1167 13.8767 79.8334 12.3483 78.0611 12.3483C76.2889 12.3483 75.0361 13.8767 74.8629 15.5477H81.2593Z" fill="#3B3B3B"/>
<path d="M92.9008 12.2378V14.5711V19.6352C92.9008 19.8288 92.7277 19.9715 92.5647 19.9715C92.3712 19.9715 92.2286 19.8288 92.2286 19.6352V18.2291C91.6684 19.3397 90.6805 20.1447 89.4175 20.1447C87.411 20.1447 86.3008 18.4023 86.3008 16.558V12.2276C86.3008 12.0543 86.4434 11.8913 86.6369 11.8913C86.8304 11.8913 86.973 12.0645 86.973 12.2276V16.558C86.973 18.0151 87.798 19.462 89.4175 19.462C91.6888 19.462 92.2286 17.3324 92.2286 14.9787V12.2174C92.2286 12.0136 92.4425 11.8098 92.687 11.9015C92.8092 11.9626 92.9008 12.0951 92.9008 12.2378Z" fill="#3B3B3B"/>
<path d="M110 15.2514V19.5819C110 19.7755 109.827 19.9181 109.664 19.9181C109.47 19.9181 109.328 19.7755 109.328 19.5819V15.2514C109.328 13.7943 108.503 12.3678 106.883 12.3678C104.846 12.3678 104.072 14.5483 104.072 16.2398V19.5819C104.072 19.7755 103.899 19.9181 103.736 19.9181C103.542 19.9181 103.4 19.7755 103.4 19.5819V15.2514C103.4 13.7943 102.575 12.3678 100.955 12.3678C98.8979 12.3678 98.0525 13.9879 98.1238 16.1481C98.1238 16.199 98.1442 16.2907 98.1238 16.3213V19.5717C98.1238 19.7449 97.9914 19.9079 97.8183 19.9283C97.6044 19.9487 97.4414 19.7958 97.4414 19.5921V12.2048C97.4414 12.0316 97.5738 11.8685 97.747 11.8482C97.9609 11.8278 98.1238 11.9806 98.1238 12.1844V13.4173C98.7044 12.378 99.7433 11.6953 100.955 11.6953C102.33 11.6953 103.4 12.5716 103.838 13.8453C104.398 12.5818 105.488 11.6953 106.883 11.6953C108.869 11.6953 110 13.4173 110 15.2514Z" fill="#3B3B3B"/>
<path opacity="0.6" d="M8.4538 10.1992L0 14.0406L8.4538 19.0436L16.9178 14.0406L8.4538 10.1992Z" fill="black"/>
<path opacity="0.45" d="M0 14.0409L8.4538 19.0439V10.1995V0L0 14.0409Z" fill="black"/>
<path opacity="0.8" d="M8.45703 0V10.1995V19.0439L16.921 14.0409L8.45703 0Z" fill="black"/>
<path opacity="0.45" d="M0 15.6523L8.4538 27.5739V20.6451L0 15.6523Z" fill="black"/>
<path opacity="0.8" d="M8.45703 20.6451V27.5739L16.921 15.6523L8.45703 20.6451Z" fill="black"/>
</svg>
