<svg width="77" height="18" viewBox="0 0 77 18" fill="none" xmlns="http://www.w3.org/2000/svg">
<path d="M23.1983 13.1858C23.1504 13.4413 23.342 13.6649 23.5976 13.6649H33.978C34.3453 13.6649 34.505 13.8565 34.4571 14.2079L33.9301 17.1144C33.8822 17.4658 33.6586 17.6574 33.2753 17.6574H17.9442C17.5769 17.6574 17.4012 17.4658 17.4491 17.1144L20.3397 0.792982C20.4196 0.44164 20.6431 0.25 21.0104 0.25H24.8592C25.2265 0.25 25.4341 0.44164 25.3543 0.792982L23.1823 13.1698L23.1983 13.1858Z" fill="white"/>
<path d="M46.7242 13.6649C48.3691 13.6649 48.6885 13.4094 48.9121 12.0679L50.9083 0.792982C50.9882 0.44164 51.2118 0.25 51.5791 0.25H55.4597C55.8111 0.25 56.0027 0.44164 55.9388 0.792982L53.6711 13.6809C53.1761 16.4596 52.4734 17.6574 48.8163 17.6574H38.867C36.4077 17.6574 35.2578 16.811 35.2578 14.8786C35.2578 12.9462 35.3057 14.128 35.3856 13.6809L37.6533 0.792982C37.7331 0.44164 37.9567 0.25 38.324 0.25H42.2047C42.572 0.25 42.7477 0.44164 42.6838 0.792982L40.6876 12.0679C40.6397 12.3394 40.6077 12.5629 40.6077 12.7386C40.6077 13.5052 41.023 13.6649 42.3165 13.6649H46.7242Z" fill="white"/>
<path d="M73.3306 17.2124C73.5062 17.4679 73.2986 17.7554 73.0271 17.7554H68.3799C68.0126 17.7554 67.789 17.6756 67.6134 17.3402L65.2338 13.5074C64.9943 13.0442 64.3555 12.9804 64.0201 13.3796L60.0915 17.3402C59.7881 17.6915 59.5965 17.7554 59.1972 17.7554H54.3424C54.0709 17.7554 53.9751 17.452 54.1986 17.2124L61.9919 9.35514C62.2155 9.11559 62.2475 8.76424 62.0878 8.47678L57.2329 0.875014C57.1052 0.619492 57.2808 0.332031 57.5523 0.332031H62.1996C62.5988 0.332031 62.7745 0.411883 62.9501 0.747255L73.3465 17.1965L73.3306 17.2124Z" fill="white"/>
<path d="M66.8223 5.17062C66.6626 4.94704 66.6946 4.64361 66.8702 4.436L70.5433 0.76288C70.8148 0.411538 71.0703 0.347656 71.4696 0.347656H76.3244C76.5959 0.347656 76.6758 0.651087 76.4522 0.890639L69.4254 7.93345C69.2018 8.173 68.8345 8.14107 68.6429 7.86957L66.8383 5.15466L66.8223 5.17062Z" fill="white"/>
<path d="M18.8382 0.25H2.94815C2.58084 0.25 2.35726 0.44164 2.27741 0.792982L1.67055 4.17865C1.62264 4.46611 1.84623 4.7376 2.13368 4.7376H6.73302H18.0557C18.423 4.7376 18.6466 4.54595 18.7104 4.19461L19.3333 0.808954C19.4131 0.457611 19.2215 0.25 18.8382 0.25Z" fill="white"/>
<path d="M12.8357 5.78906C13.203 5.78906 13.3947 6.01265 13.3468 6.36399L12.676 10.0052C12.6281 10.3565 12.3726 10.5481 12.0053 10.5481H5.85688C5.68121 10.5481 5.52151 10.6759 5.4736 10.8516L4.08422 17.559C4.05228 17.7347 3.81273 17.7826 3.71691 17.6229L0.219502 13.4707C0.0278627 13.1513 -0.0360188 12.784 0.0278608 12.4326L1.1777 6.34802C1.24158 6.02861 1.51306 5.78906 1.84843 5.78906H12.8357Z" fill="white"/>
</svg>
