<svg width="130" height="20" viewBox="0 0 130 20" fill="none" xmlns="http://www.w3.org/2000/svg">
<path d="M22.9747 8.35229C22.9747 15.8976 18.3305 18.3191 15.8676 16.1783C13.8622 14.4236 13.2641 10.7036 10.2383 10.3176C6.40335 9.86134 6.05152 14.95 3.51833 14.95C0.562932 14.95 0 10.7036 0 8.49267C0 6.24663 0.633298 3.19342 3.13131 3.19342C6.05152 3.19342 6.22744 7.58021 9.88649 7.33455C13.5104 7.0889 13.5807 2.52663 15.9732 0.59645C18.049 -1.12317 22.9747 0.701733 22.9747 8.35229Z" fill="#072723"/>
<path d="M33.8789 15.3726V0.738281H35.2863V7.09036H43.871V0.738281H45.2432V15.4077H43.871V8.28353H35.2863V15.4077H33.8789V15.3726Z" fill="#072723"/>
<path d="M48.904 19.8297L50.8039 15.127L46.6875 5.26556H48.13L50.8391 11.9335C50.9799 12.3546 51.2261 12.881 51.5076 13.5478C51.5428 13.4425 51.578 13.3372 51.6483 13.232C51.6835 13.1267 51.7187 13.0214 51.7891 12.9161C51.8594 12.7406 51.965 12.5652 52.0002 12.3897C52.0354 12.2142 52.1057 12.0738 52.1761 11.8984L54.7093 5.23047H56.0814L50.3114 19.7946H48.904V19.8297Z" fill="#072723"/>
<path d="M57.418 19.8292V5.26513H58.7197V5.89683C58.7197 6.0372 58.7197 6.14248 58.7197 6.28286C58.7197 6.42324 58.7197 6.56362 58.7197 6.70399C58.7197 6.77418 58.7197 6.84437 58.7197 6.91456C58.7197 6.98475 58.7197 7.05494 58.7197 7.12512C59.0716 6.49343 59.529 5.96701 60.1974 5.58098C60.8307 5.19494 61.5344 4.98438 62.3436 4.98438C63.2936 4.98438 64.1028 5.23003 64.8065 5.68626C65.5101 6.14249 66.0379 6.77418 66.4249 7.58135C66.8119 8.38852 66.9878 9.30097 66.9878 10.3187C66.9878 11.3715 66.8119 12.284 66.4249 13.0911C66.0379 13.8983 65.4749 14.53 64.8065 15.0213C64.1028 15.4776 63.2936 15.7232 62.414 15.7232C61.64 15.7232 60.9715 15.5477 60.303 15.1617C59.6697 14.8108 59.1771 14.2493 58.7901 13.5474C58.7901 13.6527 58.7901 13.7579 58.7901 13.8983C58.7901 14.0036 58.7901 14.1089 58.7901 14.2142C58.7901 14.2843 58.7901 14.3896 58.7901 14.4598C58.7901 14.53 58.7901 14.6002 58.7901 14.6704V19.8643H57.418V19.8292ZM62.1325 14.6353C62.8362 14.6353 63.4343 14.4598 63.9621 14.0738C64.4898 13.6877 64.8768 13.1964 65.1935 12.5296C65.4749 11.8628 65.6157 11.1259 65.6157 10.2836C65.6157 9.44134 65.4749 8.70436 65.1935 8.07267C64.912 7.44097 64.4898 6.91456 63.9621 6.56362C63.4343 6.21267 62.8362 6.0372 62.1325 6.0372C61.464 6.0372 60.8659 6.21267 60.3382 6.56362C59.8104 6.91456 59.3882 7.40588 59.1068 8.07267C58.8253 8.70436 58.6494 9.47644 58.6494 10.3187C58.6494 11.161 58.7901 11.933 59.1068 12.5647C59.3882 13.2315 59.8104 13.7228 60.3382 14.1089C60.8659 14.4949 61.464 14.6353 62.1325 14.6353Z" fill="#072723"/>
<path d="M73.2185 15.6881C72.2686 15.6881 71.4242 15.4775 70.6853 15.0564C69.9465 14.6353 69.3836 14.0035 68.9966 13.1964C68.6095 12.3892 68.3984 11.4066 68.3984 10.2836C68.3984 9.26585 68.6095 8.3534 69.0317 7.54619C69.4539 6.73903 70.0169 6.10733 70.7205 5.6511C71.4242 5.19488 72.2334 4.94922 73.113 4.94922C74.0629 4.94922 74.8722 5.15978 75.5758 5.61601C76.2443 6.03714 76.7721 6.66887 77.1239 7.44095C77.4757 8.24811 77.6516 9.16053 77.6516 10.2134V10.4941H69.7002C69.7002 11.3715 69.841 12.1085 70.1576 12.7402C70.4742 13.3719 70.8613 13.8281 71.389 14.1439C71.9168 14.4598 72.5501 14.6353 73.2185 14.6353C74.0278 14.6353 74.6962 14.4598 75.2592 14.0737C75.7869 13.6877 76.1388 13.0911 76.2443 12.319H77.5461C77.4405 12.9507 77.2294 13.5473 76.8424 14.0386C76.4906 14.5299 75.998 14.9511 75.3647 15.2319C74.8018 15.5126 74.0629 15.6881 73.2185 15.6881ZM76.2443 9.51147C76.2443 8.45864 75.9628 7.61642 75.3999 6.98472C74.837 6.35302 74.0981 6.03718 73.113 6.03718C72.163 6.03718 71.389 6.35299 70.7909 7.01978C70.1928 7.68657 69.841 8.49374 69.7354 9.51147H76.2443Z" fill="#072723"/>
<path d="M79.6562 15.3723V5.26513H80.958V5.93192C80.958 6.0372 80.958 6.14249 80.958 6.24777C80.958 6.35305 80.958 6.45833 80.958 6.56362C80.958 6.6689 80.958 6.80928 80.958 6.91456C80.958 7.01984 80.958 7.16022 80.958 7.3006C81.2395 6.6338 81.6617 6.0723 82.295 5.65117C82.8931 5.23003 83.5968 4.98438 84.406 4.98438C84.6171 4.98438 84.793 4.98437 84.9689 5.01947V6.28286C84.7226 6.24777 84.5115 6.24777 84.3356 6.24777C83.6671 6.24777 83.069 6.38814 82.5765 6.70399C82.0839 7.01984 81.6969 7.44097 81.4154 8.00248C81.1339 8.56399 80.9932 9.23078 80.9932 9.96776V15.4074H79.6562V15.3723Z" fill="#072723"/>
<path d="M88.2024 15.0918L88.1321 15.3725H84.0156L84.086 15.0918C85.2119 14.9865 85.7044 14.6356 85.8803 13.7933L88.2024 2.87897C88.4487 1.75596 88.0969 1.58048 86.9007 1.82614L86.971 1.54539L89.5042 0.703125H89.7857L87.0062 13.8284C86.7951 14.6356 87.1117 14.9865 88.2024 15.0918Z" fill="#072723"/>
<path d="M92.8821 15.0888L92.8118 15.3696H88.6602L88.7305 15.0888C89.8564 14.9836 90.3489 14.6326 90.5249 13.7904L91.9322 7.12248C92.1785 5.99946 91.8618 5.82399 90.6304 6.06965L90.7008 5.78886L93.234 4.9466H93.5154L91.6507 13.7904C91.4748 14.6326 91.7915 14.9836 92.8821 15.0888ZM93.5858 1.26172C94.1487 1.26172 94.5006 1.68285 94.4302 2.24436C94.3598 2.80587 93.8673 3.1919 93.3395 3.1919C92.7766 3.1919 92.3896 2.77077 92.4599 2.24436C92.4951 1.68285 92.9877 1.26172 93.5858 1.26172Z" fill="#072723"/>
<path d="M99.9913 18.3202L101.117 13.0911C100.414 14.6353 98.9006 15.6881 97.3526 15.6881C94.8194 15.6881 93.6231 13.3017 94.3972 9.75717C94.9249 7.16019 97.247 4.94922 99.9913 4.94922C101.258 4.94922 102.313 5.51073 102.736 6.35299L103.686 4.94922H103.967L101.082 18.3202C100.871 19.2326 101.61 19.4081 102.349 19.5485L102.278 19.8292H97.5285L97.5988 19.5485C99.0062 19.4081 99.8154 19.2326 99.9913 18.3202ZM98.0562 14.9511C99.358 14.9511 100.66 13.8281 101.293 12.4945L102.137 8.49377C102.349 7.05491 101.68 5.54586 99.6747 5.54586C97.7748 5.54586 96.1563 7.26547 95.6286 9.75717C94.9953 12.8104 95.9101 14.9511 98.0562 14.9511Z" fill="#072723"/>
<path d="M118.148 15.0888L118.077 15.3696H113.926L113.996 15.0888C115.122 14.9836 115.615 14.6326 115.791 13.7904L117.198 7.12248C117.444 5.99946 117.127 5.82399 115.896 6.06965L115.966 5.78886L118.5 4.9466H118.781L116.916 13.7904C116.74 14.6326 117.057 14.9836 118.148 15.0888ZM118.851 1.26172C119.414 1.26172 119.766 1.68285 119.696 2.24436C119.625 2.80587 119.133 3.1919 118.605 3.1919C118.042 3.1919 117.655 2.77077 117.726 2.24436C117.796 1.68285 118.289 1.26172 118.851 1.26172Z" fill="#072723"/>
<path d="M112.267 13.7579L113.217 9.30091L114.132 4.94922H113.851L111.317 5.79148L111.247 6.07227C112.443 5.82661 112.76 6.00208 112.549 7.1251L111.353 12.8103C110.016 14.0386 109.101 14.7756 107.94 14.7756C106.533 14.7756 105.794 13.8281 106.146 12.1787L107.694 4.94922H107.412L104.879 5.79148L104.809 6.07227C106.005 5.82661 106.357 6.00208 106.11 7.1251L105.02 12.319C104.597 14.2492 105.583 15.653 107.377 15.653C108.573 15.653 109.629 14.9862 111.282 13.2315L111.212 13.5824L110.86 15.302H113.499L113.569 14.9862C112.408 14.9511 112.092 14.6353 112.267 13.7579Z" fill="#072723"/>
<path d="M129.191 4.55953L130 0.664062H129.718L127.185 1.50632L127.115 1.78707C128.311 1.54142 128.628 1.71689 128.416 2.8399L127.713 6.17387C127.255 5.43689 126.27 4.94557 125.144 4.94557C122.365 4.94557 120.078 7.15651 119.48 9.92895C118.776 13.298 119.937 15.6844 122.471 15.6844C124.054 15.6844 125.567 14.5965 126.27 13.0523L126.094 13.9297L125.778 15.3686L128.416 15.3335L128.487 15.0527C127.396 14.9474 127.08 14.5965 127.255 13.7542L129.191 4.55953ZM126.376 12.4557C125.778 13.8244 124.441 14.9474 123.139 14.9474C120.993 14.9474 120.078 12.8067 120.676 9.92895C121.239 7.2267 122.893 5.54217 124.793 5.54217C126.833 5.54217 127.502 7.15651 127.22 8.59537L127.115 9.0516L126.376 12.4557Z" fill="#072723"/>
</svg>
