<svg width="66" height="25" viewBox="0 0 66 25" fill="none" xmlns="http://www.w3.org/2000/svg">
<path d="M9.85527 0L14.8971 5.04178C15.495 5.63971 15.495 6.60916 14.8971 7.20709L11.8968 10.2074L9.85527 8.16593C7.60033 5.91096 7.60033 2.25495 9.85527 0Z" fill="black"/>
<path fill-rule="evenodd" clip-rule="evenodd" d="M9.8571 24.4959L1.69122 16.33C-0.563739 14.0751 -0.563739 10.419 1.69122 8.16406L8.77445 15.2474C9.37242 15.8452 10.3418 15.8452 10.9398 15.2474L18.023 8.16406C20.278 10.419 20.278 14.0751 18.023 16.33L9.8571 24.4959Z" fill="black"/>
<path d="M62.9379 18.3739C62.9379 18.3739 62.9554 7.65634 62.9379 7.14599C62.9205 6.63562 63.4404 6.12505 63.9413 6.12504C64.4421 6.12501 65.1279 6.125 66.0001 6.125V17.3531C66.0181 17.8635 65.5077 18.3739 64.9973 18.3739C64.4869 18.3739 64.0954 18.3739 62.9379 18.3739Z" fill="black"/>
<path d="M50.6914 7.14574V18.3739H53.7536V14.2909H58.8573C59.3677 14.2909 59.8781 13.7805 59.8781 13.2701V11.2287H53.7536V9.18722H59.8781C60.3884 9.18722 60.8988 8.67682 60.8988 8.1665V6.125H51.7121C51.2017 6.125 50.6914 6.63537 50.6914 7.14574Z" fill="black"/>
<path d="M45.5859 16.3332C45.5859 15.8229 46.0963 15.3125 46.6066 15.3125C47.117 15.3125 47.117 15.3125 47.6274 15.3125C48.1378 15.3125 48.6482 15.8229 48.6482 16.3332C48.6482 16.8436 48.6482 16.8436 48.6482 17.354C48.6482 17.8643 48.1378 18.3747 47.6274 18.3747C47.117 18.3747 47.117 18.3747 46.6066 18.3747C46.0963 18.3747 45.5859 17.8643 45.5859 17.354C45.5859 16.8436 45.5859 16.8436 45.5859 16.3332Z" fill="black"/>
<path d="M40.4809 18.3739C40.4809 18.3739 40.4984 7.65634 40.4809 7.14599C40.4634 6.63562 40.9833 6.12505 41.4842 6.12504C41.9851 6.12501 42.6709 6.125 43.5431 6.125V17.3531C43.561 17.8635 43.0506 18.3739 42.5402 18.3739C42.0299 18.3739 41.6384 18.3739 40.4809 18.3739Z" fill="black"/>
<path d="M28.2344 15.3116C28.2344 15.3116 28.2344 7.65626 28.2344 7.14589C28.2344 6.63552 28.6781 6.12515 29.2552 6.12513C29.916 6.12511 30.7517 6.12508 31.2966 6.125V15.3116H38.4418C38.4418 15.3116 38.4418 16.8429 38.4418 17.3533C38.4418 17.8636 37.9314 18.3739 37.421 18.3739C36.9107 18.3739 28.2344 18.3739 28.2344 18.3739V15.3116Z" fill="black"/>
</svg>
