<svg width="91" height="20" viewBox="0 0 91 20" fill="none" xmlns="http://www.w3.org/2000/svg">
<path d="M90.2885 8.33618V5.26709H86.6231V1.26562H83.0781V15.8539C83.0781 17.1943 83.4152 18.2158 84.0803 18.8901C84.745 19.565 85.7808 19.9071 87.1591 19.9071H90.2884V16.838H87.9986C87.5005 16.838 87.1431 16.7286 86.9362 16.5123C86.7462 16.3145 86.623 15.8146 86.623 15.239V8.33618H90.2885Z" fill="white"/>
<path d="M41.1716 5.26562L37.5064 15.9308L33.8412 5.26562H30.1172L35.4082 19.7805H39.6046L44.8956 5.26562H41.1716Z" fill="white"/>
<path d="M65.1309 0.00390625H61.5859V19.7815H65.1309V0.00390625Z" fill="white"/>
<path d="M77.3018 12.5366C77.3018 13.4555 77.1626 14.2549 76.8881 14.9126C76.6155 15.5668 76.2253 16.0682 75.7279 16.4027C75.2305 16.7373 74.619 16.907 73.9109 16.907C72.8974 16.907 72.1325 16.5738 71.6379 15.9173C71.1382 15.2538 70.8848 14.248 70.8848 12.9284V5.26562H67.3398V13.3202C67.3398 14.5743 67.4966 15.6381 67.8063 16.4815C68.116 17.3275 68.5414 18.0157 69.0709 18.5266C69.5999 19.0368 70.2177 19.4054 70.9071 19.6224C71.5929 19.8382 72.3304 19.9475 73.0995 19.9475C74.208 19.9475 75.1254 19.7465 75.8253 19.35C76.4638 18.9873 76.9987 18.5633 77.4179 18.0878L77.7354 19.7799H80.8467V5.26562H77.3018V12.5366Z" fill="white"/>
<path d="M56.1673 6.03081C55.0502 5.41144 53.7236 5.09766 52.2251 5.09766C50.7449 5.09766 49.4232 5.41144 48.2969 6.03062C47.1692 6.65136 46.2832 7.52802 45.6632 8.63615C45.0443 9.74331 44.7305 11.0556 44.7305 12.5363C44.7305 13.999 45.0443 15.302 45.6632 16.4092C46.2828 17.5169 47.169 18.3934 48.2969 19.0141C49.4232 19.6333 50.7449 19.9471 52.2251 19.9471C53.7236 19.9471 55.0501 19.6333 56.1673 19.0139C57.2856 18.3936 58.1669 17.5171 58.7867 16.4091C59.4059 15.3014 59.7199 13.9983 59.7199 12.5363C59.7199 11.0561 59.4059 9.74388 58.7867 8.63612C58.1666 7.52782 57.2854 6.65116 56.1673 6.03081ZM54.2945 16.4017C53.7234 16.7736 53.0272 16.9623 52.2253 16.9623C51.4417 16.9623 50.7499 16.7736 50.1693 16.4015C49.5877 16.0291 49.1315 15.5034 48.8132 14.8388C48.4936 14.1737 48.3313 13.3991 48.3313 12.5363C48.3313 11.6558 48.4934 10.8767 48.8132 10.2206C49.1313 9.56502 49.5878 9.03912 50.1701 8.65729C50.7505 8.27587 51.442 8.0825 52.2252 8.0825C53.0268 8.0825 53.7226 8.27587 54.2939 8.65689C54.8667 9.03892 55.3187 9.56502 55.6376 10.2208C55.9571 10.8785 56.1191 11.6576 56.1191 12.5364C56.1191 13.3972 55.9571 14.172 55.6376 14.8389C55.3188 15.5036 54.867 16.0293 54.2945 16.4017Z" fill="white"/>
<path d="M3.68397 4.88672H0V19.7834H3.68397V4.88672Z" fill="white"/>
<path d="M15.2367 5.73659C15.2367 2.57561 12.6627 0.00390625 9.49855 0.00390625H0V3.18521H9.04694C10.4789 3.18521 11.665 4.31016 11.6912 5.69279C11.7043 6.38508 11.4445 7.03846 10.9596 7.53253C10.4745 8.02677 9.82645 8.29912 9.13473 8.29912H5.6105C5.48536 8.29912 5.38352 8.40079 5.38352 8.52592V11.3534C5.38352 11.4015 5.39838 11.4474 5.42633 11.4861L11.4058 19.7815H15.7828L9.78948 11.4634C12.8077 11.3119 15.2367 8.77596 15.2367 5.73659Z" fill="white"/>
<path d="M26.5661 5.94635C25.5049 5.3831 24.2448 5.09766 22.8209 5.09766C21.3953 5.09766 20.1206 5.41164 19.0322 6.03121C17.942 6.65136 17.0843 7.52822 16.4831 8.63695C15.8825 9.74313 15.5781 11.0646 15.5781 12.5647C15.5781 14.0267 15.8872 15.3294 16.4972 16.4367C17.1085 17.5466 17.9903 18.4186 19.1176 19.0284C20.2427 19.6382 21.5924 19.9473 23.1287 19.9473C24.3475 19.9473 25.4419 19.7189 26.3817 19.2683C27.3217 18.8165 28.0891 18.2012 28.6627 17.4395C29.2076 16.7155 29.5752 15.8967 29.755 15.006L29.7744 14.911H26.2492L26.2325 14.9681C26.0384 15.6324 25.6618 16.1574 25.1129 16.5286C24.5236 16.9279 23.7998 17.1304 22.9613 17.1304C22.2506 17.1304 21.6088 16.9781 21.0537 16.6778C20.5014 16.3793 20.0695 15.9523 19.7704 15.4084C19.4701 14.8625 19.2992 14.2058 19.2627 13.4603V13.3438H29.911L29.9229 13.2787C29.9601 13.0744 29.9839 12.8638 29.9943 12.6521C30.0031 12.4458 30.0082 12.2398 30.0082 12.0318C29.9892 10.6255 29.6748 9.38848 29.074 8.35485C28.4709 7.31999 27.6271 6.5096 26.5661 5.94635ZM25.2744 8.67975C25.88 9.18945 26.2568 9.91381 26.395 10.8341H19.3851C19.4652 10.237 19.6635 9.71984 19.9749 9.29561C20.3016 8.85063 20.7202 8.50107 21.2191 8.25649C21.7186 8.01114 22.267 7.88659 22.8489 7.88659C23.8325 7.88656 24.6485 8.15343 25.2744 8.67975Z" fill="white"/>
</svg>
