<svg width="97" height="23" viewBox="0 0 97 23" fill="none" xmlns="http://www.w3.org/2000/svg">
<path d="M3.12203 3.58418C4.99075 0.746642 10.0785 -0.401422 13.2267 0.123438C16.0294 0.590381 19.6094 2.49403 20.8146 5.12933C20.8146 5.12933 22.3275 9.05063 17.6911 8.67097C15.8702 8.52206 14.0825 8.07259 12.4297 7.28667C9.75769 6.01543 6.67929 5.40694 3.79119 6.37576C3.08985 6.61107 2.42895 6.95577 1.83515 7.39789C1.49414 7.6516 1.17519 7.93562 0.880134 8.24171C0.697208 8.43106 0.0078125 9.02944 0.0078125 9.29422C0.0078125 9.29422 0.527163 5.41887 4.749 3.82685C7.84849 2.65765 10.744 2.83136 13.7643 4.25979C14.6284 4.6679 15.4852 5.11004 16.4044 5.38672C16.9375 5.54665 18.5947 6.07243 18.9495 5.4336C19.2695 4.85818 18.295 3.81765 17.8732 3.52444C14.8013 1.39008 11.1851 0.563735 7.54883 1.54543C6.01288 1.95998 4.39878 2.608 3.12203 3.58418Z" fill="black"/>
<path d="M22.2619 13.4062C22.2619 13.4062 20.6008 17.5591 14.0948 16.4864C12.1149 16.1601 10.2958 15.5535 8.463 14.7574C6.91416 14.0846 5.24399 13.4688 3.52787 13.728C2.27409 13.9174 1.1003 14.6103 1.2014 16.0333C1.35675 18.2154 3.21076 19.9729 4.96824 21.0492C8.70198 23.3345 14.6923 23.5091 18.086 20.4435C18.1651 20.3718 18.258 20.2367 18.3517 20.1899C18.3517 20.1899 14.4413 22.1624 10.8768 21.5742C7.31217 20.9858 3.333 19.152 3.57474 18.0096C3.79443 16.9727 4.83311 17.0536 5.56112 17.4774C7.71753 18.7347 10.3096 19.5336 12.8145 19.6006C14.7842 19.653 16.8818 19.38 18.6384 18.3938C20.5918 17.2971 21.463 15.4047 22.2619 13.4062Z" fill="black"/>
<path d="M0.494423 15.8322C0.494423 15.8322 -0.958812 12.7179 1.11764 10.4336C3.19409 8.14946 6.10056 7.83785 8.38475 8.3572C10.669 8.87654 13.4365 11.4025 17.6244 10.8831C21.8122 10.3638 21.6735 8.97946 21.7425 8.3912C21.7425 8.3912 23.2646 12.7518 18.5932 14.1353C13.9219 15.5185 9.4234 13.0276 9.4234 13.0276C9.4234 13.0276 -0.127861 8.90966 0.495344 15.8301L0.494423 15.8322Z" fill="black"/>
<path d="M32.1281 16.9295C29.7395 16.9295 28.0179 15.5956 27.8008 13.145H29.8636C30.0187 14.4789 30.9493 15.1303 32.1281 15.1303C33.1983 15.1303 33.9427 14.6185 33.9427 13.8119C33.9427 11.5164 28.142 12.8348 28.142 8.87972C28.142 7.04952 29.7705 5.82422 31.8489 5.82422C34.191 5.82422 35.7109 7.06503 35.9436 9.14336H33.8963C33.6946 8.19728 32.9191 7.62339 31.8489 7.62339C30.8718 7.62339 30.2514 8.07319 30.2514 8.78666C30.2514 10.7719 36.0522 9.48461 36.0522 13.6879C36.0522 15.6576 34.4236 16.9295 32.1281 16.9295Z" fill="black"/>
<path d="M44.5021 16.9295C41.3225 16.9295 38.9805 14.5875 38.9805 11.3769C38.9805 8.16625 41.3225 5.82422 44.5021 5.82422C47.6507 5.82422 50.0081 8.16625 50.0081 11.3769C50.0081 14.5875 47.6507 16.9295 44.5021 16.9295ZM41.0898 11.3769C41.0898 13.5328 42.5012 15.1303 44.5021 15.1303C46.4719 15.1303 47.8833 13.5328 47.8833 11.3769C47.8833 9.2209 46.4719 7.62339 44.5021 7.62339C42.5012 7.62339 41.0898 9.2209 41.0898 11.3769Z" fill="black"/>
<path d="M58.3427 16.9295C55.2873 16.9295 52.9297 14.8977 52.9297 11.3769C52.9297 7.87156 55.2408 5.82422 58.3427 5.82422C60.9795 5.82422 62.8407 7.46829 63.0424 9.74833H60.9329C60.7469 8.49196 59.7232 7.62339 58.3427 7.62339C56.4351 7.62339 55.0391 9.00384 55.0391 11.3769C55.0391 13.7499 56.4505 15.1303 58.3427 15.1303C59.7077 15.1303 60.7778 14.1997 60.9795 12.9434H63.0889C62.8407 15.1924 61.0261 16.9295 58.3427 16.9295Z" fill="black"/>
<path d="M66.3125 16.8064V5.94922H68.4218V10.2766L72.5476 5.94922H75.3394L71.1516 10.2921L75.7427 16.8064H73.1525L69.7247 11.7655L68.4373 13.1149V16.8064H66.3125Z" fill="black"/>
<path d="M78.3516 16.8064V5.94922H85.719V7.74839H80.461V10.261H84.7108V12.0602H80.461V15.0071H85.781V16.8064H78.3516Z" fill="black"/>
<path d="M91.6318 16.8064V7.74839H88.3594V5.94922H96.9987V7.74839H93.741V16.8064H91.6318Z" fill="black"/>
</svg>
